<svg width="32" height="32" viewBox="0 0 32 32" fill="none" xmlns="http://www.w3.org/2000/svg">
<g id="voucher 1" clip-path="url(#clip0_169_31188)">
<g id="Group">
<g id="Group_2">
<path id="Vector" d="M15.3125 0.6875C11.6465 0.6875 8.28194 1.97644 5.64575 4.125V27.875C8.28194 30.0236 11.6465 31.3125 15.3125 31.3125C23.7694 31.3125 30.625 24.4569 30.625 16C30.625 7.54313 23.7694 0.6875 15.3125 0.6875Z" fill="#FF4155"/>
</g>
<g id="Group_3">
<path id="Vector_2" d="M28.8748 16C28.8748 17.4137 29.8136 18.6075 31.1011 18.9937C31.6329 19.1531 31.9998 19.6381 31.9998 20.1931V26.625C31.9998 27.3156 31.4404 27.875 30.7498 27.875H24.1498C23.7079 27.875 23.2886 27.6494 23.0723 27.2638C22.8586 26.8825 22.4498 26.625 21.9817 26.625L20.7317 16L21.9817 5.375C22.4498 5.375 22.8586 5.1175 23.0723 4.73625C23.2886 4.35062 23.7079 4.125 24.1498 4.125H30.7498C31.4404 4.125 31.9998 4.68437 31.9998 5.375V11.8069C31.9998 12.3619 31.6329 12.8469 31.1011 13.0063C29.8136 13.3925 28.8748 14.5863 28.8748 16Z" fill="#FFB332"/>
</g>
<g id="Group_4">
<path id="Vector_3" d="M25.7317 26.625V5.375C25.7317 4.68437 26.2911 4.125 26.9817 4.125H24.1498C23.7079 4.125 23.2886 4.35062 23.0723 4.73625C22.8586 5.1175 22.4498 5.375 21.9817 5.375L20.7317 16L21.9817 26.625C22.4498 26.625 22.8586 26.8825 23.0723 27.2638C23.2886 27.6494 23.7079 27.875 24.1498 27.875H26.9817C26.2911 27.875 25.7317 27.3156 25.7317 26.625Z" fill="#FF9433"/>
</g>
<g id="Group_5">
<path id="Vector_4" d="M21.9819 26.625C21.5131 26.625 21.105 26.8825 20.8913 27.2638C20.675 27.6494 20.255 27.875 19.8137 27.875H5.645C2.2 25.0675 0 20.7906 0 16C0 11.2094 2.2 6.9325 5.645 4.125H19.8137C20.255 4.125 20.675 4.35062 20.8913 4.73625C21.105 5.1175 21.5131 5.375 21.9819 5.375V26.625Z" fill="#FFDD40"/>
</g>
<g id="Group_6">
<path id="Vector_5" d="M5.64575 27.875H13.3337C11.9531 27.875 10.8337 26.7557 10.8337 25.375V6.625C10.8337 5.24431 11.9531 4.125 13.3337 4.125H5.64575C2.20069 6.93281 0 11.2091 0 16C0 20.7909 2.20069 25.0672 5.64575 27.875Z" fill="#FFC839"/>
</g>
<g id="Group_7">
<g id="Group_8">
<g id="Group_9">
<path id="Vector_6" d="M6.52834 23.3473C6.31809 23.3473 6.10502 23.2941 5.90934 23.1824C5.3099 22.8399 5.10171 22.0762 5.44421 21.4769L12.4125 9.28256C12.755 8.68318 13.5185 8.47506 14.118 8.81743C14.7174 9.15993 14.9256 9.92356 14.5831 10.5229L7.61477 22.7172C7.38409 23.121 6.96227 23.3473 6.52834 23.3473Z" fill="white"/>
</g>
</g>
<g id="Group_10">
<g id="Group_11">
<path id="Vector_7" d="M5.16285 16.0757C3.30592 16.0757 1.79517 14.4111 1.79517 12.3649C1.79517 10.3187 3.30592 8.65405 5.16285 8.65405C7.01986 8.65405 8.5306 10.3187 8.5306 12.3649C8.5306 14.4111 7.01986 16.0757 5.16285 16.0757ZM5.16285 11.1541C4.69254 11.1541 4.29517 11.7086 4.29517 12.3649C4.29517 13.0212 4.69248 13.5757 5.16285 13.5757C5.63323 13.5757 6.0306 13.0212 6.0306 12.3649C6.0306 11.7086 5.63317 11.1541 5.16285 11.1541Z" fill="white"/>
</g>
</g>
<g id="Group_12">
<g id="Group_13">
<path id="Vector_8" d="M14.8636 23.347C13.0066 23.347 11.4958 21.6824 11.4958 19.6362C11.4958 17.59 13.0066 15.9253 14.8636 15.9253C16.7205 15.9253 18.2313 17.59 18.2313 19.6362C18.2313 21.6824 16.7205 23.347 14.8636 23.347ZM14.8636 18.4253C14.3933 18.4253 13.9958 18.9798 13.9958 19.6362C13.9958 20.2925 14.3932 20.847 14.8636 20.847C15.334 20.847 15.7313 20.2925 15.7313 19.6362C15.7313 18.9798 15.3339 18.4253 14.8636 18.4253Z" fill="white"/>
</g>
</g>
<g id="Group_14">
<path id="Vector_9" d="M14.7094 18.4685C14.0746 18.3923 13.5823 17.8528 13.5823 17.1974C13.5823 16.6165 13.9692 16.1265 14.4992 15.9695C12.813 16.1704 11.4958 17.7477 11.4958 19.6583C11.4958 21.5688 12.813 23.1462 14.4992 23.347C13.9692 23.19 13.5823 22.7 13.5823 22.1191C13.5823 21.4638 14.0746 20.9243 14.7094 20.848C14.3097 20.743 13.9958 20.2413 13.9958 19.6583C13.9958 19.0752 14.3097 18.5735 14.7094 18.4685Z" fill="#D3DCFB"/>
</g>
<g id="Group_15">
<path id="Vector_10" d="M5.00873 11.1734C4.37392 11.0971 3.8816 10.5576 3.8816 9.90225C3.8816 9.32132 4.26848 8.83138 4.79848 8.67432C3.11229 8.87519 1.79517 10.4526 1.79517 12.3631C1.79517 14.2736 3.11235 15.851 4.79848 16.0519C4.26848 15.8948 3.8816 15.4049 3.8816 14.8239C3.8816 14.1686 4.37392 13.6291 5.00873 13.5528C4.60898 13.4479 4.29517 12.9461 4.29517 12.3631C4.29517 11.7801 4.60898 11.2784 5.00873 11.1734Z" fill="#D3DCFB"/>
</g>
<g id="Group_16">
<path id="Vector_11" d="M10.0137 17.2811C9.30604 17.2811 8.73242 16.7075 8.73242 15.9998C8.73242 15.869 8.75223 15.7429 8.78867 15.624L5.44417 21.4768C5.10173 22.0762 5.30992 22.8398 5.90929 23.1823C6.10498 23.2941 6.31804 23.3473 6.52829 23.3473C6.96223 23.3473 7.38404 23.121 7.61479 22.7172L10.9627 16.8585C10.7284 17.1174 10.3905 17.2811 10.0137 17.2811Z" fill="#D3DCFB"/>
</g>
</g>
<g id="Group_17">
<g id="Group_18">
<g id="Group_19">
<path id="Vector_12" d="M20.2629 11.7366H17.7629C17.504 11.7366 17.2942 11.5268 17.2942 11.2678C17.2942 11.0089 17.504 10.7991 17.7629 10.7991H20.2629C20.5219 10.7991 20.7317 11.0089 20.7317 11.2678C20.7317 11.5268 20.5219 11.7366 20.2629 11.7366Z" fill="#FFC839"/>
</g>
<g id="Group_20">
<path id="Vector_13" d="M20.2629 14.2366H17.7629C17.504 14.2366 17.2942 14.0268 17.2942 13.7678C17.2942 13.5089 17.504 13.2991 17.7629 13.2991H20.2629C20.5219 13.2991 20.7317 13.5089 20.7317 13.7678C20.7317 14.0268 20.5219 14.2366 20.2629 14.2366Z" fill="#FFC839"/>
</g>
</g>
<g id="Group_21">
<path id="Vector_14" d="M19.7942 9.125C20.312 9.125 20.7317 8.70527 20.7317 8.1875C20.7317 7.66973 20.312 7.25 19.7942 7.25C19.2764 7.25 18.8567 7.66973 18.8567 8.1875C18.8567 8.70527 19.2764 9.125 19.7942 9.125Z" fill="#FFC839"/>
</g>
</g>
<g id="Group_22">
<g id="Group_23">
<g id="Group_24">
<path id="Vector_15" d="M26.2004 22.7188H23.7004C23.4415 22.7188 23.2317 22.5089 23.2317 22.25C23.2317 21.9911 23.4415 21.7812 23.7004 21.7812H26.2004C26.4594 21.7812 26.6692 21.9911 26.6692 22.25C26.6692 22.5089 26.4594 22.7188 26.2004 22.7188Z" fill="white"/>
</g>
<g id="Group_25">
<path id="Vector_16" d="M26.2004 25.2188H23.7004C23.4415 25.2188 23.2317 25.0089 23.2317 24.75C23.2317 24.4911 23.4415 24.2812 23.7004 24.2812H26.2004C26.4594 24.2812 26.6692 24.4911 26.6692 24.75C26.6692 25.0089 26.4594 25.2188 26.2004 25.2188Z" fill="white"/>
</g>
</g>
<g id="Group_26">
<path id="Vector_17" d="M24.1692 20.1072C24.687 20.1072 25.1067 19.6874 25.1067 19.1697C25.1067 18.6519 24.687 18.2322 24.1692 18.2322C23.6514 18.2322 23.2317 18.6519 23.2317 19.1697C23.2317 19.6874 23.6514 20.1072 24.1692 20.1072Z" fill="white"/>
</g>
</g>
</g>
<circle id="Ellipse 210" cx="29" cy="1" r="1" fill="#FF4155"/>
</g>
<defs>
<clipPath id="clip0_169_31188">
<rect width="32" height="32" fill="white"/>
</clipPath>
</defs>
</svg>
